# xmcd CD database file
#
# Track frame offsets:
#	150
#	19058
#	35734
#	54002
#
# Disc length: 995 seconds
#
# Revision: 0
# Processed by: cddbd v1.5.1PL0 Copyright (c) Steve Scherf et al.
# Submitted via: CDex 1.51
#
DISCID=2703e104
DTITLE=outerfield - Who knows...?
DYEAR=2005
DGENRE=Rock
TTITLE0=7 colors
TTITLE1=Juvinille
TTITLE2=Who knows...?
TTITLE3=Inflection
EXTD=YEAR: 2005
EXTT0=
EXTT1=
EXTT2=
EXTT3=
PLAYORDER=
